<svg xmlns="http://www.w3.org/2000/svg" width="11.146" height="11.651" viewBox="0 0 11.146 11.651"><defs><style>.a{fill:#fff;}</style></defs><g transform="translate(-0.382 0.206)"><g transform="translate(0.581 3.919)"><rect class="a" width="2.448" height="7.526"/></g><g transform="translate(4.002 3.919)"><path class="a" d="M165.7,160.088c-.026-.008-.051-.017-.078-.025s-.066-.014-.1-.019a2.193,2.193,0,0,0-.439-.044,3.4,3.4,0,0,0-2.631,1.439V160H160v7.526h2.448v-4.105s1.85-2.577,2.631-.684v4.789h2.447v-5.079A2.441,2.441,0,0,0,165.7,160.088Z" transform="translate(-160 -160)"/></g><g transform="translate(0 0)"><g transform="translate(0 0)"><ellipse class="a" cx="1.5" cy="2" rx="1.5" ry="2" transform="translate(0.382 -0.206)"/></g></g></g></svg>