<svg xmlns="http://www.w3.org/2000/svg" width="53.588" height="53.588" viewBox="0 0 53.588 53.588"><defs><style>.a{fill:#fda92d;}</style></defs><g transform="translate(21.435)"><path class="a" d="M197.359,0a5.359,5.359,0,1,0,5.359,5.359A5.359,5.359,0,0,0,197.359,0Zm0,8.931a3.573,3.573,0,1,1,3.573-3.573A3.573,3.573,0,0,1,197.359,8.931Z" transform="translate(-192)"/></g><g transform="translate(18.756 11.611)"><path class="a" d="M179.611,104H179.4l-.188.094a7.12,7.12,0,0,1-6.347,0l-.188-.094h-.211A4.471,4.471,0,0,0,168,108.466v5.359a2.679,2.679,0,0,0,2.679,2.679H181.4a2.679,2.679,0,0,0,2.679-2.679v-5.359A4.471,4.471,0,0,0,179.611,104Zm2.679,9.824a.893.893,0,0,1-.893.893H170.679a.893.893,0,0,1-.893-.893v-5.359a2.679,2.679,0,0,1,2.489-2.672,8.938,8.938,0,0,0,7.525,0,2.679,2.679,0,0,1,2.489,2.672Z" transform="translate(-168 -104)"/></g><g transform="translate(40.191 29.473)"><path class="a" d="M365.359,264a5.359,5.359,0,1,0,5.359,5.359A5.359,5.359,0,0,0,365.359,264Zm0,8.931a3.573,3.573,0,1,1,3.573-3.573A3.573,3.573,0,0,1,365.359,272.931Z" transform="translate(-360 -264)"/></g><g transform="translate(37.511 41.084)"><path class="a" d="M347.611,368H347.4l-.188.089a7.12,7.12,0,0,1-6.347,0l-.188-.089h-.211A4.471,4.471,0,0,0,336,372.466v5.359a2.679,2.679,0,0,0,2.679,2.679H349.4a2.679,2.679,0,0,0,2.679-2.679v-5.359A4.471,4.471,0,0,0,347.611,368Zm2.679,9.824a.893.893,0,0,1-.893.893H338.679a.893.893,0,0,1-.893-.893v-5.359a2.679,2.679,0,0,1,2.489-2.672,8.938,8.938,0,0,0,7.526,0,2.679,2.679,0,0,1,2.489,2.672Z" transform="translate(-336 -368)"/></g><g transform="translate(2.679 29.473)"><path class="a" d="M29.359,264a5.359,5.359,0,1,0,5.359,5.359A5.359,5.359,0,0,0,29.359,264Zm0,8.931a3.573,3.573,0,1,1,3.573-3.573A3.573,3.573,0,0,1,29.359,272.931Z" transform="translate(-24 -264)"/></g><g transform="translate(0 41.084)"><path class="a" d="M11.611,368H11.4l-.188.089a7.12,7.12,0,0,1-6.347,0L4.676,368H4.466A4.471,4.471,0,0,0,0,372.466v5.359A2.679,2.679,0,0,0,2.679,380.5H13.4a2.679,2.679,0,0,0,2.679-2.679v-5.359A4.471,4.471,0,0,0,11.611,368Zm2.679,9.824a.893.893,0,0,1-.893.893H2.679a.893.893,0,0,1-.893-.893v-5.359a2.679,2.679,0,0,1,2.489-2.672,8.938,8.938,0,0,0,7.525,0,2.679,2.679,0,0,1,2.489,2.672Z" transform="translate(0 -368)"/></g><g transform="translate(17.862 43.763)"><path class="a" d="M177.79,393.59v0a.893.893,0,0,0-1.172-.472h0a19.811,19.811,0,0,1-12.739.877l.836-.246a.893.893,0,1,0-.5-1.715l-3.573,1.048c-.013,0-.023.015-.036.02a.886.886,0,0,0-.23.128.783.783,0,0,0-.089.056.865.865,0,0,0-.219.3.894.894,0,0,0-.068.369,2.754,2.754,0,0,0,.089.357c.005.012,0,.027.01.039l1.786,3.418a.894.894,0,0,0,1.584-.827l-.727-1.39a21.5,21.5,0,0,0,14.575-.793A.893.893,0,0,0,177.79,393.59Z" transform="translate(-159.998 -391.995)"/></g><g transform="translate(33.939 6.991)"><path class="a" d="M320.706,79.114a.893.893,0,0,0-1.263,0l-1.264,1.264a21.4,21.4,0,0,0-12.938-17.684.893.893,0,1,0-.7,1.643,19.619,19.619,0,0,1,11.813,15.784l-1.007-1.007a.893.893,0,0,0-1.263,1.263l2.679,2.679a.893.893,0,0,0,1.263,0l0,0,2.679-2.679A.893.893,0,0,0,320.706,79.114Z" transform="translate(-303.998 -62.622)"/></g><g transform="translate(5.359 5.374)"><path class="a" d="M62.264,50.494a.831.831,0,0,0-.023-.155c0-.008-.01-.013-.013-.022s0-.015,0-.022a.856.856,0,0,0-.084-.123.9.9,0,0,0-.1-.147.838.838,0,0,0-.174-.119.786.786,0,0,0-.1-.072L58.2,48.2a.893.893,0,0,0-.741,1.624l1.85.846A21.4,21.4,0,0,0,48,69.555a.893.893,0,0,0,1.786,0,19.618,19.618,0,0,1,9.666-16.919l-.646,1.35a.893.893,0,0,0,.417,1.191.879.879,0,0,0,.387.089.893.893,0,0,0,.8-.506L62.2,51.031A.041.041,0,0,1,62.208,51a.859.859,0,0,0,.048-.189.925.925,0,0,0,.034-.147A.891.891,0,0,0,62.264,50.494Z" transform="translate(-48 -48.134)"/></g></svg>