<svg xmlns="http://www.w3.org/2000/svg" width="53.588" height="53.588" viewBox="0 0 53.588 53.588"><defs><style>.a{fill:#fda92d;}</style></defs><g transform="translate(0.003)"><path class="a" d="M52.565,0H35.937a1.047,1.047,0,0,0-.74,1.787L39.113,5.7,25.931,18.885,13.757,6.711a1.047,1.047,0,0,0-1.48,0L.333,18.655a1.047,1.047,0,1,0,1.48,1.48l11.2-11.2L27.6,23.512a1.047,1.047,0,1,0,1.48-1.48l-1.666-1.666L40.593,7.183l5.844,5.844L35.815,23.65a1.047,1.047,0,1,0,1.48,1.48L47.918,14.508l3.907,3.907a1.047,1.047,0,0,0,1.787-.74V1.047A1.047,1.047,0,0,0,52.565,0ZM51.518,15.148,38.463,2.093H51.518Z" transform="translate(-0.026)"/></g><g transform="translate(32.895 25.935)"><path class="a" d="M316.077,248.1a1.046,1.046,0,1,0,.307.74A1.05,1.05,0,0,0,316.077,248.1Z" transform="translate(-314.29 -247.79)"/></g><g transform="translate(0.002 18.624)"><path class="a" d="M20.166,187.094l-5.673-5.673,1.689-1.689a1.047,1.047,0,1,0-1.48-1.48L.329,192.625a1.047,1.047,0,1,0,1.48,1.48l11.2-11.2,5.673,5.673a1.047,1.047,0,1,0,1.48-1.48Z" transform="translate(-0.022 -177.945)"/></g><g transform="translate(25.747 38.401)"><path class="a" d="M247.1,366.9h-.049a1.047,1.047,0,0,0,0,2.093h.041a1.047,1.047,0,0,0,.008-2.093Z" transform="translate(-246 -366.901)"/></g><g transform="translate(0 25.76)"><path class="a" d="M52.541,271.861H50.705v-4.69a1.046,1.046,0,0,0-.794-1.016l-4.865-1.212L43.3,260.735l2.582-4.3a1.047,1.047,0,0,0-.157-1.279L41.672,251.1a1.047,1.047,0,0,0-1.279-.157l-4.3,2.582-4.208-1.744-1.212-4.865a1.046,1.046,0,0,0-1.016-.794H23.926a1.046,1.046,0,0,0-1.016.794L21.7,251.785l-4.208,1.744-4.3-2.582a1.047,1.047,0,0,0-1.279.157L7.859,255.16a1.047,1.047,0,0,0-.157,1.279l2.582,4.3-1.744,4.208-4.865,1.212a1.046,1.046,0,0,0-.794,1.016v4.69H1.047a1.047,1.047,0,1,0,0,2.093H52.541a1.047,1.047,0,0,0,0-2.093Zm-3.929,0h-10.7a11.278,11.278,0,0,0-7.1-12.354,1.047,1.047,0,0,0-.746,1.956,9.185,9.185,0,0,1,5.718,10.4H17.8a9.185,9.185,0,0,1,5.753-10.411,1.047,1.047,0,1,0-.738-1.959,11.278,11.278,0,0,0-7.143,12.37H4.976v-3.872l4.583-1.142a1.047,1.047,0,0,0,.714-.615l2.148-5.183a1.046,1.046,0,0,0-.07-.94l-2.433-4.047,2.9-2.9,4.048,2.433a1.046,1.046,0,0,0,.94.07l5.183-2.148a1.047,1.047,0,0,0,.615-.714l1.142-4.583h4.1l1.142,4.583a1.047,1.047,0,0,0,.615.714l5.183,2.148a1.046,1.046,0,0,0,.94-.07l4.048-2.433,2.9,2.9-2.433,4.047a1.046,1.046,0,0,0-.07.94l2.148,5.183a1.047,1.047,0,0,0,.714.615l4.583,1.142Z" transform="translate(0 -246.127)"/></g></svg>