<svg xmlns="http://www.w3.org/2000/svg" width="54" height="49.188" viewBox="0 0 54 49.188"><defs><style>.a{fill:#fda92d;}</style></defs><path class="a" d="M41.315,27.77a4.478,4.478,0,0,1-2.061,3.361c-.329.277-.942.781-.941.97a1.318,1.318,0,0,1-1.328,1.33h-.011a1.322,1.322,0,0,1-1.339-1.308c-.012-1.45,1.046-2.318,1.9-3.032.667-.56,1.1-.954,1.1-1.315a1.325,1.325,0,0,0-2.649,0,1.339,1.339,0,1,1-2.678,0,4,4,0,0,1,8-.005Zm-4.3,6.9A1.314,1.314,0,0,0,35.7,36v.01a1.31,1.31,0,0,0,1.309,1.334,1.341,1.341,0,0,0,0-2.683ZM10.025,43.992a1.339,1.339,0,1,0,0,2.678h.112a1.339,1.339,0,1,0,0-2.678Zm4.653,0a1.339,1.339,0,1,0,0,2.678h.111a1.339,1.339,0,1,0,0-2.678ZM54,22.608v15.07a6.436,6.436,0,0,1-6.429,6.463H30.208c-.339,0-.619,0-.853-.007s-.521-.007-.628,0c-.112.074-.387.326-.651.57-.1.1-.224.2-.352.32l-4.912,4.477a1.37,1.37,0,0,1-2.283-.989V34.323H6.5a3.836,3.836,0,0,0-3.826,3.806V53.2A3.777,3.777,0,0,0,6.5,56.934H25.9a1.344,1.344,0,0,1,.893.379l4,3.69V48.278a1.339,1.339,0,0,1,2.678,0V64.037a1.32,1.32,0,0,1-.789,1.218,1.284,1.284,0,0,1-.53.107,1.353,1.353,0,0,1-.9-.364l-5.87-5.386H6.5A6.458,6.458,0,0,1,0,53.2V38.128a6.517,6.517,0,0,1,6.5-6.483H20.529V22.608a6.494,6.494,0,0,1,6.526-6.434H47.571A6.411,6.411,0,0,1,54,22.608Zm-2.678,0a3.73,3.73,0,0,0-3.751-3.756H27.055a3.814,3.814,0,0,0-3.849,3.756V45.482L25.9,43.05c.125-.114.264-.218.366-.312,1.229-1.133,1.544-1.314,3.147-1.281.219,0,.479.006.8.006H47.571a3.755,3.755,0,0,0,3.751-3.786V22.608Z" transform="translate(0 -16.174)"/></svg>