<svg xmlns="http://www.w3.org/2000/svg" width="13.688" height="10.754" viewBox="0 0 13.688 10.754"><defs><style>.a{fill:#fff;}</style></defs><g transform="translate(0.001 -54.82)"><g transform="translate(0 54.82)"><path class="a" d="M1.314,58.135q.26.183,1.566,1.088t2,1.394l.325.233q.248.18.412.29t.4.248a2.3,2.3,0,0,0,.439.206,1.21,1.21,0,0,0,.382.069h.015a1.211,1.211,0,0,0,.382-.069,2.307,2.307,0,0,0,.439-.206q.233-.138.4-.248t.412-.29q.248-.18.325-.233l3.574-2.482a3.628,3.628,0,0,0,.932-.939,2.017,2.017,0,0,0,.374-1.153,1.232,1.232,0,0,0-1.222-1.222H1.222a1.091,1.091,0,0,0-.905.4A1.542,1.542,0,0,0,0,56.21a1.784,1.784,0,0,0,.42,1.043A3.791,3.791,0,0,0,1.314,58.135Z" transform="translate(0 -54.82)"/><path class="a" d="M12.923,185.1q-2.5,1.7-3.8,2.635-.435.321-.706.5a4.36,4.36,0,0,1-.722.367,2.2,2.2,0,0,1-.84.187H6.836A2.2,2.2,0,0,1,6,188.6a4.363,4.363,0,0,1-.722-.367q-.271-.179-.706-.5-1.031-.756-3.8-2.635A4.046,4.046,0,0,1,0,184.437V190.5a1.177,1.177,0,0,0,.359.863,1.177,1.177,0,0,0,.863.359H12.465a1.226,1.226,0,0,0,1.222-1.222v-6.064A4.212,4.212,0,0,1,12.923,185.1Z" transform="translate(0 -180.969)"/></g></g></svg>