<svg xmlns="http://www.w3.org/2000/svg" width="18.343" height="19.028" viewBox="0 0 18.343 19.028"><defs><style>.a{fill:#a5a5a5;}</style></defs><g transform="translate(0)"><g transform="translate(0)"><path class="a" d="M24.52,2.064q-.058,0-.117,0H22.936V.8A.891.891,0,0,0,21.95,0H20.6a.79.79,0,0,0-.871.8V2.063h-5.5V.8a.79.79,0,0,0-.871-.8H12a.891.891,0,0,0-.986.8V2.063H9.548A1.7,1.7,0,0,0,7.8,3.712q0,.058,0,.117V17.079a1.866,1.866,0,0,0,1.742,1.949H24.4a1.866,1.866,0,0,0,1.742-1.949V3.829A1.7,1.7,0,0,0,24.52,2.064ZM20.6.917h1.421V3.439H20.6Zm-8.6,0h1.307V3.439H12ZM25.228,17.079a.952.952,0,0,1-.825,1.032H9.548a.952.952,0,0,1-.825-1.032V7.336H25.228v9.743Zm0-13.251V6.419H8.722V3.829a.779.779,0,0,1,.825-.848h1.467v.5A.943.943,0,0,0,12,4.356h1.353a.848.848,0,0,0,.871-.825q0-.023,0-.046v-.5h5.5v.5a.848.848,0,0,0,.825.871h1.4a.943.943,0,0,0,.986-.871v-.5H24.4a.78.78,0,0,1,.825.848Z" transform="translate(-7.804)"/><path class="a" d="M119.436,199.274l-.413,2.293a.458.458,0,0,0,.665.481l2.063-1.077,2.063,1.077.206.046A.436.436,0,0,0,124.3,202a.459.459,0,0,0,.183-.436l-.413-2.293,1.674-1.6a.5.5,0,0,0,.115-.481.482.482,0,0,0-.367-.3l-2.293-.344-1.032-2.086a.459.459,0,0,0-.825,0l-1.032,2.086-2.293.344a.481.481,0,0,0-.367.3.5.5,0,0,0,.115.481Zm1.261-1.857a.413.413,0,0,0,.321-.252l.734-1.467.734,1.467a.413.413,0,0,0,.321.252l1.628.229-1.169,1.123a.481.481,0,0,0-.138.413l.275,1.628-1.444-.779-.206-.046-.206.046-1.444.779.275-1.628a.481.481,0,0,0-.138-.413l-1.169-1.123Z" transform="translate(-112.809 -185.679)"/></g></g></svg>