<svg xmlns="http://www.w3.org/2000/svg" width="7.59" height="14.039" viewBox="0 0 7.59 14.039"><defs><style>.a{fill:#fff;}</style></defs><g transform="translate(-22.077)"><path class="a" d="M29.381,0,27.561,0a3.2,3.2,0,0,0-3.367,3.455V5.048h-1.83a.286.286,0,0,0-.286.286V7.643a.286.286,0,0,0,.286.286h1.83v5.824a.286.286,0,0,0,.286.286h2.388a.286.286,0,0,0,.286-.286V7.929h2.14a.286.286,0,0,0,.286-.286V5.334a.286.286,0,0,0-.286-.286H27.155V3.7c0-.649.155-.979,1-.979h1.226a.286.286,0,0,0,.286-.286V.289A.286.286,0,0,0,29.381,0Z" transform="translate(0)"/></g></svg>