<svg xmlns="http://www.w3.org/2000/svg" width="49.318" height="49.315" viewBox="0 0 49.318 49.315"><defs><style>.a{fill:#fda92d;}</style></defs><g transform="translate(0 -0.013)"><g transform="translate(0 0.013)"><g transform="translate(0 0)"><path class="a" d="M39.412,336.285l-5.849,3.376a.822.822,0,0,0,.822,1.424l5.849-3.375a.822.822,0,0,0-.822-1.424Z" transform="translate(-29.959 -303.796)"/><path class="a" d="M11.508,248.3a.822.822,0,0,0-.822-.822H.822a.822.822,0,0,0,0,1.644h9.864A.822.822,0,0,0,11.508,248.3Z" transform="translate(0 -223.643)"/><path class="a" d="M125.906,37.958a.822.822,0,1,0,1.423-.822l-2.056-3.562a.822.822,0,0,0-1.424.822Z" transform="translate(-111.821 -29.969)"/><path class="a" d="M33.57,125.274l8.314,4.8a.822.822,0,1,0,.822-1.423l-8.314-4.8a.822.822,0,0,0-.822,1.424Z" transform="translate(-29.965 -111.823)"/><path class="a" d="M375.583,129.789a.822.822,0,0,0,1.123.3l8.315-4.8a.822.822,0,0,0-.822-1.424l-8.315,4.8A.821.821,0,0,0,375.583,129.789Z" transform="translate(-339.308 -111.837)"/><path class="a" d="M350.284,38.256a.822.822,0,0,0,1.123-.3l2.056-3.562a.822.822,0,0,0-1.424-.822l-2.056,3.562A.822.822,0,0,0,350.284,38.256Z" transform="translate(-316.174 -29.967)"/><path class="a" d="M272.2,263.645a11.183,11.183,0,0,1-3.788-2.267,6.366,6.366,0,0,1-2.225-4.35V242.234c0-.168.034-1.644,1.233-1.644.882,0,1.23,1.709,1.235,1.708l.822,10.684a.822.822,0,0,0,1.639-.127l-.831-10.757c-.195-1.17-1.018-3.152-2.865-3.152-2.276,0-2.877,2.151-2.877,3.288v14.794a7.91,7.91,0,0,0,2.707,5.513,12.769,12.769,0,0,0,4.431,2.665.822.822,0,0,0,.519-1.56Z" transform="translate(-239.062 -215.932)"/><path class="a" d="M167.486,238.946c-1.848,0-2.67,1.982-2.874,3.224l-.822,10.685a.822.822,0,1,0,1.639.127l.813-10.613c0-.018.353-1.779,1.244-1.779,1.156,0,1.23,1.373,1.233,1.644v14.794a6.366,6.366,0,0,1-2.225,4.35,11.28,11.28,0,0,1-3.789,2.268.822.822,0,0,0,.261,1.6.842.842,0,0,0,.26-.042,12.769,12.769,0,0,0,4.431-2.665,7.91,7.91,0,0,0,2.707-5.513V242.234C170.362,241.1,169.761,238.946,167.486,238.946Z" transform="translate(-146.526 -215.932)"/><path class="a" d="M286.406,109.541l-9.872-7.4a5.777,5.777,0,0,1-1.315-2.745l-2.473-16.478q-.269-1.346-.512-2.6c-1.466-7.5-2.352-12.033-5.225-12.033-1.729,0-2.466.737-2.466,2.466,0,1.656.791,11.954.824,12.392a.822.822,0,0,0,1.639-.127c-.008-.107-.819-10.672-.819-12.265,0-.822.016-.822.822-.822,1.52,0,2.536,5.2,3.612,10.7.163.837.333,1.707.506,2.568l2.476,16.5c.065.286.668,2.828,1.953,3.764l9.863,7.4a.822.822,0,1,0,.986-1.315Z" transform="translate(-239.063 -61.706)"/><path class="a" d="M407.332,341.086a.822.822,0,0,0,.822-1.424l-5.848-3.377a.822.822,0,0,0-.822,1.424Z" transform="translate(-362.442 -303.796)"/><path class="a" d="M403.229,247.5h-9.865a.822.822,0,1,0,0,1.644h9.865a.822.822,0,1,0,0-1.644Z" transform="translate(-354.733 -223.66)"/><path class="a" d="M249.12.835a.822.822,0,0,0-1.644,0V3.3a.822.822,0,0,0,1.644,0Z" transform="translate(-223.64 -0.013)"/><path class="a" d="M36.8,68.279c-2.873,0-3.759,4.53-5.225,12.033-.164.835-.333,1.7-.519,2.64L28.588,99.409a4.631,4.631,0,0,1-1.322,2.733l-9.863,7.4a.822.822,0,1,0,.986,1.315L28.2,103.5c1.135-.709,1.879-2.735,2.021-3.863l2.458-16.4q.271-1.35.514-2.607c1.077-5.505,2.093-10.7,3.612-10.7.806,0,.822,0,.822.822,0,1.594-.811,12.159-.819,12.265a.822.822,0,0,0,1.639.127c.034-.438.824-10.736.824-12.392C39.267,69.016,38.53,68.279,36.8,68.279Z" transform="translate(-15.43 -61.704)"/></g></g></g></svg>