<svg xmlns="http://www.w3.org/2000/svg" width="53.729" height="53.715" viewBox="0 0 53.729 53.715"><defs><style>.a{fill:#fda92d;}</style></defs><g transform="translate(0)"><g transform="translate(0 0.222)"><path class="a" d="M52.965,15.937h0l0,0-3.468-.495a.892.892,0,0,1-.409-1.6l2.8-2.1a.891.891,0,0,0,.178-1.248l-3.21-4.279a.891.891,0,0,0-1.248-.178l-2.8,2.1A.892.892,0,0,1,43.386,7.3l.5-3.468a.892.892,0,0,0-.756-1.009h0l-5.292-.756a.892.892,0,0,0-1.009.756h0l-.5,3.468a.892.892,0,0,1-1.6.409l-2.1-2.8a.891.891,0,0,0-1.248-.178L28.7,5.728a17.25,17.25,0,0,0-3.646,0A16.939,16.939,0,0,0,10.121,20.918c-.024.252-.033.5-.045.753H9.808a.892.892,0,0,0-.872.713l-.616,2.93-2.468-1.7a.892.892,0,0,0-1.137.1L2.041,26.39a.892.892,0,0,0-.1,1.136l1.694,2.463L.7,30.605a.892.892,0,0,0-.7.873v3.566a.892.892,0,0,0,.708.873l2.93.616L1.944,39a.892.892,0,0,0,.1,1.136l2.675,2.675a.892.892,0,0,0,1.137.1l2.463-1.7.616,2.931a.892.892,0,0,0,.872.713h3.566a.892.892,0,0,0,.873-.708l.616-2.93,2.463,1.694a.892.892,0,0,0,1.136-.1l1.385-1.389v2.541a3.555,3.555,0,0,0,1.783,3.07v4.953A3.566,3.566,0,0,0,25.2,55.55h3.566a3.566,3.566,0,0,0,3.566-3.566V47.03a3.555,3.555,0,0,0,1.783-3.07V40.431a4.369,4.369,0,0,1,2.062-3.639,17.11,17.11,0,0,0,2.1-1.6l-1.189-1.328a15.178,15.178,0,0,1-1.878,1.436,6.141,6.141,0,0,0-2.876,5.136v3.529a1.783,1.783,0,0,1-1.783,1.783H23.415a1.783,1.783,0,0,1-1.783-1.783v-3.6A6,6,0,0,0,18.8,35.325,15.111,15.111,0,0,1,26.79,7.42a.97.97,0,0,0-.035.1.892.892,0,0,0,.17.661l2.1,2.8a.873.873,0,0,1,.053.99.886.886,0,0,1-.892.429l-3.468-.5a.892.892,0,0,0-1.009.756h0l-.757,5.295a.892.892,0,0,0,.756,1.009h0l3.468.5a.892.892,0,0,1,.409,1.6l-2.8,2.1a.891.891,0,0,0-.178,1.248l3.21,4.279a.892.892,0,0,0,1.248.178l2.8-2.1a.892.892,0,0,1,1.417.839l-.495,3.468a.892.892,0,0,0,.756,1.009h0l5.3.757a.988.988,0,0,0,.126.008.891.891,0,0,0,.884-.765l.495-3.468a.892.892,0,0,1,1.6-.409l2.1,2.8a.891.891,0,0,0,1.248.178l4.279-3.21a.891.891,0,0,0,.178-1.248l-2.1-2.8a.876.876,0,0,1-.053-.99.866.866,0,0,1,.892-.428L51.956,23a.892.892,0,0,0,1.009-.756h0l.756-5.3A.892.892,0,0,0,52.965,15.937ZM23.415,47.526h7.132v1.783H23.415Zm0,3.566h7.132v.892a1.783,1.783,0,0,1-1.783,1.783H25.2a1.783,1.783,0,0,1-1.783-1.783Zm-7.1-15.375a16.85,16.85,0,0,0,1.524,1.11,4.352,4.352,0,0,1,1.8,2.281l-1.912,1.909-1.852-1.277a1.783,1.783,0,0,0-2.757,1.1l-.467,2.226H10.531l-.467-2.223a1.783,1.783,0,0,0-2.757-1.1L5.454,41.017,3.83,39.4l1.276-1.851a1.783,1.783,0,0,0-1.1-2.758L1.783,34.32V32.2l2.223-.468a1.783,1.783,0,0,0,1.1-2.752L3.83,27.125,5.454,25.5l1.854,1.277a1.783,1.783,0,0,0,2.756-1.1l.156-.742a16.978,16.978,0,0,0,.707,3.023,5.349,5.349,0,1,0,5.391,7.756Zm-1.385-1.256a3.561,3.561,0,1,1-3.343-4.766h.034A16.885,16.885,0,0,0,14.933,34.461ZM51.321,21.1l-2.585-.369a2.675,2.675,0,0,0-2.518,4.253l1.566,2.089-2.853,2.14-1.567-2.088a2.675,2.675,0,0,0-4.788,1.226l-.361,2.589-3.53-.5.369-2.585A2.675,2.675,0,0,0,30.8,25.334L28.713,26.9l-2.14-2.853,2.088-1.567a2.675,2.675,0,0,0-1.226-4.788l-2.585-.369.5-3.53,2.585.369a2.675,2.675,0,0,0,2.519-4.253L28.887,7.82,31.74,5.68l1.567,2.089a2.675,2.675,0,0,0,4.788-1.226l.369-2.585,3.53.5-.369,2.585a2.675,2.675,0,0,0,4.253,2.518L47.966,8l2.14,2.853-2.089,1.567a2.675,2.675,0,0,0,1.226,4.788l2.585.369Z" transform="translate(0 -2.057)"/></g><g transform="translate(31.204 8.481)"><path class="a" d="M287.132,76.171a7.132,7.132,0,1,0,7.132,7.132A7.132,7.132,0,0,0,287.132,76.171Zm0,12.482a5.349,5.349,0,1,1,5.349-5.349A5.349,5.349,0,0,1,287.132,88.653Z" transform="translate(-280 -76.171)"/></g><g transform="translate(43.921 33.209)"><rect class="a" width="6.241" height="1.783"/></g><g transform="translate(42.459 37.873)"><g transform="translate(0 0)"><rect class="a" width="1.783" height="6.963" transform="matrix(0.64, -0.768, 0.768, 0.64, 0, 1.37)"/></g></g><g transform="translate(38.572 40.341)"><rect class="a" width="1.783" height="6.241"/></g><g transform="translate(0.91 13.621)"><g transform="translate(0 0)"><rect class="a" width="7.352" height="1.782" transform="translate(0 1.783) rotate(-14.035)"/></g></g><g transform="translate(2.391 4.847)"><g transform="translate(0 0)"><rect class="a" width="1.782" height="7.669" transform="matrix(0.581, -0.814, 0.814, 0.581, 0, 1.45)"/></g></g><g transform="translate(10.03 0)"><g transform="translate(0)"><rect class="a" width="1.783" height="7.361" transform="matrix(0.969, -0.248, 0.248, 0.969, 0, 0.442)"/></g></g></g></svg>