<svg xmlns="http://www.w3.org/2000/svg" width="53.589" height="53.588" viewBox="0 0 53.589 53.588"><defs><style>.a{fill:#fda92d;}</style></defs><g transform="translate(0 -0.009)"><g transform="translate(0 11.132)"><path class="a" d="M48.245,123.254a4.379,4.379,0,0,0,.75-2.456v-.84a4.4,4.4,0,0,0-7.512-3.118,15.492,15.492,0,0,0-29.375,0,4.4,4.4,0,0,0-7.512,3.118v.84a4.379,4.379,0,0,0,.75,2.456A6.746,6.746,0,0,0,0,129.844v2.107A1.047,1.047,0,0,0,1.047,133H6.489a1.047,1.047,0,1,0,0-2.093h-4.4v-1.061A4.647,4.647,0,0,1,6.735,125.2h4.954a15.4,15.4,0,0,0,2.056,4.9L1.8,142.046a3.922,3.922,0,0,0,5.547,5.547l6.584-6.584a1.047,1.047,0,0,0-1.48-1.48l-6.584,6.584a1.829,1.829,0,1,1-2.587-2.587L15.006,131.8A15.484,15.484,0,0,0,41.9,125.2h4.954a4.647,4.647,0,0,1,4.642,4.642V130.9H41.657a1.047,1.047,0,1,0,0,2.093H52.543a1.047,1.047,0,0,0,1.047-1.047v-2.107A6.746,6.746,0,0,0,48.245,123.254ZM11.31,120.8a2.311,2.311,0,0,1-4.622,0v-.84a2.311,2.311,0,0,1,4.622,0Zm15.484,14.365a13.4,13.4,0,1,1,13.4-13.4A13.413,13.413,0,0,1,26.795,135.163ZM46.9,120.8a2.311,2.311,0,0,1-4.622,0v-.84a2.311,2.311,0,1,1,4.622,0Z" transform="translate(0 -106.275)"/></g><g transform="translate(15.491 15.318)"><path class="a" d="M159.3,146.275a11.3,11.3,0,0,0-7.752,19.524,1.045,1.045,0,0,0,.121.113,11.283,11.283,0,0,0,15.261,0,1.037,1.037,0,0,0,.121-.113,11.3,11.3,0,0,0-7.752-19.524Zm0,20.515a9.165,9.165,0,0,1-5.7-1.984,6.459,6.459,0,0,1,11.408,0A9.165,9.165,0,0,1,159.3,166.79Zm-2.206-9.711v-.813a2.206,2.206,0,1,1,4.411,0v.813a2.206,2.206,0,1,1-4.411,0Zm9.441,6.194a8.478,8.478,0,0,0-4-3.362,4.28,4.28,0,0,0,1.069-2.832v-.813a4.3,4.3,0,0,0-8.6,0v.813a4.28,4.28,0,0,0,1.069,2.832,8.479,8.479,0,0,0-4,3.362,9.211,9.211,0,1,1,14.47,0Z" transform="translate(-148 -146.275)"/></g><g transform="translate(14.946 41.279)"><path class="a" d="M144.587,394.616a1.046,1.046,0,1,0,.307.74A1.055,1.055,0,0,0,144.587,394.616Z" transform="translate(-142.8 -394.309)"/></g><g transform="translate(25.769 0.009)"><g transform="translate(0 0)"><path class="a" d="M247.25.009A1.047,1.047,0,0,0,246.2,1.056V4.617a1.047,1.047,0,0,0,2.093,0V1.056A1.047,1.047,0,0,0,247.25.009Z" transform="translate(-246.203 -0.009)"/></g></g><g transform="translate(25.769 7.022)"><path class="a" d="M247.987,67.316a1.046,1.046,0,1,0,.307.74A1.052,1.052,0,0,0,247.987,67.316Z" transform="translate(-246.2 -67.009)"/></g><g transform="translate(32.063 3.808)"><path class="a" d="M309.958,36.613a1.047,1.047,0,0,0-1.48,0l-1.84,1.84a1.047,1.047,0,0,0,1.48,1.48l1.84-1.84A1.047,1.047,0,0,0,309.958,36.613Z" transform="translate(-306.331 -36.307)"/></g><g transform="translate(17.594 3.803)"><path class="a" d="M171.735,38.423l-1.857-1.857a1.047,1.047,0,1,0-1.48,1.48l1.857,1.857a1.047,1.047,0,0,0,1.48-1.48Z" transform="translate(-168.091 -36.259)"/></g></g></svg>