<svg xmlns="http://www.w3.org/2000/svg" width="52.635" height="51.2" viewBox="0 0 52.635 51.2"><defs><style>.a{fill:#fda92d;}</style></defs><g transform="translate(0 -6.982)"><g transform="translate(0 6.982)"><g transform="translate(0 0)"><path class="a" d="M52.278,51.43A15.239,15.239,0,0,0,39.64,42.023a15.174,15.174,0,0,0-12.273-7.865V28.385h4.162A15.16,15.16,0,0,0,46.672,13.242V8.031a1.049,1.049,0,0,0-1.049-1.049H40.412a15.168,15.168,0,0,0-14.094,9.6,15.168,15.168,0,0,0-14.094-9.6H7.013A1.049,1.049,0,0,0,5.964,8.031v5.211A15.16,15.16,0,0,0,21.107,28.385h4.162v5.773A15.174,15.174,0,0,0,13,42.023,15.239,15.239,0,0,0,.358,51.43a4.878,4.878,0,0,0,.481,4.565,4.944,4.944,0,0,0,4.106,2.187H47.692A4.944,4.944,0,0,0,51.8,55.994,4.878,4.878,0,0,0,52.278,51.43Zm-24.912-29.3A13.06,13.06,0,0,1,40.412,9.079h4.162v4.162A13.06,13.06,0,0,1,31.529,26.287H28.85l11.43-11.43A1.049,1.049,0,0,0,38.8,13.374L27.367,24.8V22.125Zm-15.01-7.267,11.43,11.43H21.107A13.06,13.06,0,0,1,8.061,13.242V9.079h4.162A13.06,13.06,0,0,1,25.269,22.125V24.8L13.84,13.374a1.049,1.049,0,0,0-1.483,1.483Zm37.7,39.965a2.813,2.813,0,0,1-2.366,1.261H4.944a2.813,2.813,0,0,1-2.366-1.261,2.748,2.748,0,0,1-.277-2.6,13.129,13.129,0,0,1,11.411-8.146,1.049,1.049,0,0,0,.883-.581,13.085,13.085,0,0,1,22.574-1.5,15.15,15.15,0,0,0-3.2.565,1.049,1.049,0,1,0,.585,2.014,13.1,13.1,0,0,1,3.657-.518l.715.02a13.129,13.129,0,0,1,11.411,8.146A2.747,2.747,0,0,1,50.058,54.823Z" transform="translate(0 -6.982)"/></g></g><g transform="translate(29.046 44.193)"><path class="a" d="M284.951,369.431a1.049,1.049,0,0,0-1.449-.315c-.173.111-.346.228-.515.346a1.049,1.049,0,1,0,1.206,1.716c.145-.1.295-.2.444-.3A1.048,1.048,0,0,0,284.951,369.431Z" transform="translate(-282.541 -368.949)"/></g></g></svg>