<svg xmlns="http://www.w3.org/2000/svg" width="53.07" height="54.212" viewBox="0 0 53.07 54.212"><defs><style>.a{fill:#fda92d;}</style></defs><g transform="translate(-0.297 0)"><path class="a" d="M.3,50.61,1,52.191,26.217,41.735l4.393.527,1.581,4.833-2.109,2.021a2.533,2.533,0,0,0-.615,2.9l.879,2.2L44.932,48.5l-.791-2.109a2.484,2.484,0,0,0-2.46-1.669h-2.9L37.2,40.944l3.866-1.933a2.64,2.64,0,0,0,1.318-3.251L37.376,22.317a2.707,2.707,0,0,0-3.427-1.582.086.086,0,0,0-.088.088L30.171,22.4l-.527-1.318,2.021-2.372a10.34,10.34,0,0,0,2.548-5.623l2.548-3.075a4.614,4.614,0,0,0-.615-6.5,7.354,7.354,0,0,0-1.054-.7A4.366,4.366,0,0,0,32.1,2.548l-.264-.791A2.541,2.541,0,0,0,28.5.175L9.962,6.853a2.571,2.571,0,0,0-1.581,3.339v.088l.439,1.142A4.868,4.868,0,0,0,6.272,17.4a5,5,0,0,0,4.042,3.251l4.13.439a11.443,11.443,0,0,0,5.711,2.2l2.9.264.527,1.318a2.617,2.617,0,0,0-1.23,1.757l-.615,2.987L.3,38.309l.615,1.669,12.3-4.92L16.2,44.02Zm42.087-3.69.176.527L31.313,51.927l-.263-.527a1.218,1.218,0,0,1,.176-.966l2.987-2.812,3.778-1.23h3.515a.881.881,0,0,1,.879.527ZM36.849,44.81l-3.163,1.055-1.142-3.339a1.953,1.953,0,0,0,1.405-.264l1.494-.7ZM34.476,22.142a.872.872,0,0,1,1.142.439l.7,1.845-4.305,1.406.527,1.669L36.849,26.1,37.9,28.907l-4.129,1.405.527,1.67,4.217-1.406,1.055,2.811-4.042,1.318.527,1.67,4.129-1.406.439,1.142a.776.776,0,0,1-.439,1.055l-6.941,3.427a1.114,1.114,0,0,1-.527.088l-5.975-.7-3.251-9.753.615-3.251a.93.93,0,0,1,.527-.615ZM34.388,4.393a2.911,2.911,0,0,1,1.494,3.778,3.079,3.079,0,0,1-.439.7l-1.055,1.318a13.131,13.131,0,0,0-.527-2.548L32.719,4.217a3.511,3.511,0,0,1,1.669.175ZM8.029,16.958a3.027,3.027,0,0,1,1.494-3.778l1.23,2.988a12.729,12.729,0,0,0,1.757,2.987l-1.845-.176a2.939,2.939,0,0,1-2.636-2.021Zm12.477,4.657a9.6,9.6,0,0,1-8.084-6.063l-2.284-5.8a.871.871,0,0,1,.439-1.142L29.116,1.933a.97.97,0,0,1,.7,0,.9.9,0,0,1,.439.527l1.933,5.8a9.658,9.658,0,0,1-1.845,9.313l-2.724,3.163.791,2.109L25.25,24.162l-.879-2.2Zm-5.623,12.74,2.021-.791,2.2,6.678,1.669-.527-2.284-6.853L22,31.455l2.987,8.874L17.87,43.317Zm0,0" transform="translate(0 0)"/><path class="a" d="M359.889,47.414v.879h1.757v-.879a4.351,4.351,0,0,1,4.393-4.393V41.264a4.35,4.35,0,0,1-4.393-4.393v-.879h-1.757v.879a4.35,4.35,0,0,1-4.393,4.393v1.757A4.35,4.35,0,0,1,359.889,47.414Zm.879-7.381a6.054,6.054,0,0,0,2.109,2.109,6.059,6.059,0,0,0-2.109,2.109,6.06,6.06,0,0,0-2.109-2.109A6.055,6.055,0,0,0,360.768,40.034Zm0,0" transform="translate(-316.187 -32.039)"/><path class="a" d="M7.889,207.414v.879H9.647v-.879a4.351,4.351,0,0,1,4.393-4.393v-1.757a4.35,4.35,0,0,1-4.393-4.393v-.879H7.889v.879A4.35,4.35,0,0,1,3.5,201.264v1.757A4.351,4.351,0,0,1,7.889,207.414Zm.879-7.381a6.055,6.055,0,0,0,2.109,2.109,6.06,6.06,0,0,0-2.109,2.109,6.06,6.06,0,0,0-2.109-2.109,6.055,6.055,0,0,0,2.109-2.109Zm0,0" transform="translate(-2.848 -174.466)"/><path class="a" d="M393.647,196.871v-.879h-1.757v.879a4.35,4.35,0,0,1-4.393,4.393v1.757a4.35,4.35,0,0,1,4.393,4.393v.879h1.757v-.879a4.351,4.351,0,0,1,4.393-4.393v-1.757A4.35,4.35,0,0,1,393.647,196.871Zm-.879,7.381a6.06,6.06,0,0,0-2.109-2.109,6.055,6.055,0,0,0,2.109-2.109,6.054,6.054,0,0,0,2.109,2.109A6.059,6.059,0,0,0,392.768,204.252Zm0,0" transform="translate(-344.673 -174.466)"/><path class="a" d="M236.472,51.239l1.23,1.23c4.833-4.833.351-12.213.088-12.477l-1.494.967c.088,0,4.042,6.414.176,10.28Zm0,0" transform="translate(-210.08 -35.6)"/></g></svg>