<svg xmlns="http://www.w3.org/2000/svg" width="13.195" height="13.196" viewBox="0 0 13.195 13.196"><defs><style>.a{fill:#fff;}</style></defs><g transform="translate(-0.01)"><path class="a" d="M13.177,10.224q-.056-.169-.712-.5-.178-.1-.506-.281t-.6-.328q-.267-.15-.5-.29-.037-.028-.234-.164a2.634,2.634,0,0,0-.333-.2.614.614,0,0,0-.267-.065.778.778,0,0,0-.468.267,4.563,4.563,0,0,0-.515.581,5.65,5.65,0,0,1-.5.581.714.714,0,0,1-.431.267.637.637,0,0,1-.211-.047c-.084-.031-.148-.058-.192-.08S7.6,9.9,7.489,9.836s-.166-.1-.178-.108A9.849,9.849,0,0,1,5.108,8.1a9.844,9.844,0,0,1-1.631-2.2q-.009-.019-.108-.178t-.131-.225a2.031,2.031,0,0,1-.08-.192.634.634,0,0,1-.047-.211.714.714,0,0,1,.267-.431,5.644,5.644,0,0,1,.581-.5,4.561,4.561,0,0,0,.581-.515.778.778,0,0,0,.267-.469.612.612,0,0,0-.066-.267,2.605,2.605,0,0,0-.2-.333q-.136-.2-.164-.234-.14-.234-.29-.5t-.328-.6Q3.581.919,3.478.74,3.15.084,2.981.028A.525.525,0,0,0,2.784,0a3.088,3.088,0,0,0-.661.094,3.711,3.711,0,0,0-.642.2A2.512,2.512,0,0,0,.488,1.434,3.633,3.633,0,0,0,.01,3.177a3.619,3.619,0,0,0,.033.492,4.043,4.043,0,0,0,.117.539q.084.3.136.445t.192.52q.14.375.169.459a8.489,8.489,0,0,0,.778,1.64A13.9,13.9,0,0,0,3.454,9.751a13.9,13.9,0,0,0,2.479,2.02,8.5,8.5,0,0,0,1.64.778q.084.028.459.169t.52.192q.145.052.445.136a4.079,4.079,0,0,0,.539.117,3.476,3.476,0,0,0,2.235-.445,2.511,2.511,0,0,0,1.143-.994,3.691,3.691,0,0,0,.2-.642,3.081,3.081,0,0,0,.094-.661A.523.523,0,0,0,13.177,10.224Z"/></g></svg>