<svg xmlns="http://www.w3.org/2000/svg" width="15.274" height="15.274" viewBox="0 0 15.274 15.274"><defs><style>.a{fill:#fff;}</style></defs><g transform="translate(0 0)"><path class="a" d="M10.5,0H4.773A4.774,4.774,0,0,0,0,4.773V10.5a4.774,4.774,0,0,0,4.773,4.773H10.5A4.774,4.774,0,0,0,15.274,10.5V4.773A4.774,4.774,0,0,0,10.5,0Zm3.341,10.5A3.345,3.345,0,0,1,10.5,13.842H4.773A3.345,3.345,0,0,1,1.432,10.5V4.773A3.345,3.345,0,0,1,4.773,1.432H10.5a3.345,3.345,0,0,1,3.341,3.341Z"/><g transform="translate(3.819 3.819)"><path class="a" d="M131.819,128a3.819,3.819,0,1,0,3.819,3.819A3.819,3.819,0,0,0,131.819,128Zm0,6.205a2.387,2.387,0,1,1,2.387-2.387A2.39,2.39,0,0,1,131.819,134.205Z" transform="translate(-128 -128)"/></g><g transform="translate(11.233 3.023)"><circle class="a" cx="0.509" cy="0.509" r="0.509"/></g></g></svg>