<?xml version="1.0" encoding="UTF-8"?> <svg xmlns="http://www.w3.org/2000/svg" width="5.91" height="10.931" viewBox="0 0 5.91 10.931"><defs><style>.a{fill:#fff;}</style></defs><g transform="translate(0 0)"><path class="a" d="M27.764,0,26.347,0a2.489,2.489,0,0,0-2.622,2.69V3.93H22.3a.223.223,0,0,0-.223.223v1.8a.223.223,0,0,0,.223.223h1.425v4.535a.223.223,0,0,0,.223.223h1.86a.223.223,0,0,0,.223-.223V6.173H27.7a.223.223,0,0,0,.223-.223v-1.8A.223.223,0,0,0,27.7,3.93H26.03V2.879c0-.505.12-.762.779-.762h.955a.223.223,0,0,0,.223-.223V.225A.223.223,0,0,0,27.764,0Z" transform="translate(-22.077)"></path></g></svg> 