<?xml version="1.0" encoding="UTF-8"?> <svg xmlns="http://www.w3.org/2000/svg" width="19.618" height="19.618" viewBox="0 0 19.618 19.618"><defs><style>.a{fill:#fff;}</style></defs><path class="a" d="M13.487,0H6.131A6.131,6.131,0,0,0,0,6.131v7.357a6.131,6.131,0,0,0,6.131,6.131h7.357a6.131,6.131,0,0,0,6.131-6.131V6.131A6.131,6.131,0,0,0,13.487,0Zm4.291,13.487a4.3,4.3,0,0,1-4.291,4.291H6.131a4.3,4.3,0,0,1-4.291-4.291V6.131A4.3,4.3,0,0,1,6.131,1.839h7.357a4.3,4.3,0,0,1,4.291,4.291Z"></path><g transform="translate(4.904 4.904)"><path class="a" d="M132.9,128a4.9,4.9,0,1,0,4.9,4.9A4.9,4.9,0,0,0,132.9,128Zm0,7.97a3.065,3.065,0,1,1,3.065-3.065A3.07,3.07,0,0,1,132.9,135.97Z" transform="translate(-128 -128)"></path></g><g transform="translate(14.428 3.883)"><circle class="a" cx="0.654" cy="0.654" r="0.654"></circle></g></svg> 