<?xml version="1.0" encoding="UTF-8"?> <svg xmlns="http://www.w3.org/2000/svg" width="14.238" height="14.238" viewBox="0 0 14.238 14.238"><defs><style>.a{fill:#fff;}</style></defs><g transform="translate(0.289 0.289)"><g transform="translate(-0.11 4.284)"><rect class="a" width="3.144" height="9.666"></rect></g><g transform="translate(4.284 4.284)"><path class="a" d="M167.314,160.113c-.033-.011-.065-.022-.1-.032s-.084-.018-.127-.025a2.816,2.816,0,0,0-.564-.057,4.368,4.368,0,0,0-3.379,1.848V160H160v9.666h3.144v-5.272s2.376-3.309,3.379-.879v6.151h3.143v-6.523A3.135,3.135,0,0,0,167.314,160.113Z" transform="translate(-160 -160)"></path></g><g transform="translate(-0.289 -0.289)"><g transform="translate(0 0)"><circle class="a" cx="2" cy="2" r="2" transform="translate(0 0)"></circle></g></g></g></svg> 