<?xml version="1.0" encoding="UTF-8"?> <svg xmlns="http://www.w3.org/2000/svg" width="53.804" height="47.013" viewBox="0 0 53.804 47.013"><defs><style>.a{fill:#fda92d;}</style></defs><g transform="translate(0)"><path class="a" d="M52.754,34.327H46.186a4.021,4.021,0,0,0,.787-2.38V4.3a4.517,4.517,0,0,0-4.7-4.3H11.53a4.517,4.517,0,0,0-4.7,4.3V31.947a4.021,4.021,0,0,0,.787,2.38H1.051A1.008,1.008,0,0,0,0,35.287v5.65a1.008,1.008,0,0,0,1.051.96h2.6v4.156a1.009,1.009,0,0,0,1.051.96h8.932a1.008,1.008,0,0,0,1.051-.96V41.9H22.15a.964.964,0,1,0,0-1.92H2.1V36.247H51.7v3.731H31.655a.964.964,0,1,0,0,1.92h7.463v4.156a1.008,1.008,0,0,0,1.051.96H49.1a1.008,1.008,0,0,0,1.051-.96V41.9h2.6a1.008,1.008,0,0,0,1.051-.96v-5.65a1.008,1.008,0,0,0-1.051-.96ZM12.585,41.9v3.2H5.755V41.9ZM31.732,1.92V12.6l-4.394-1.829a1.144,1.144,0,0,0-.871,0L22.073,12.6V1.92ZM8.934,4.3a2.5,2.5,0,0,1,2.6-2.38h8.441V14.1a.942.942,0,0,0,.482.807,1.137,1.137,0,0,0,1,.066L26.9,12.7l5.445,2.266a1.135,1.135,0,0,0,.436.086,1.123,1.123,0,0,0,.569-.153.943.943,0,0,0,.482-.807V1.92h8.441a2.5,2.5,0,0,1,2.6,2.38V28.562H22.7V23.354a1.117,1.117,0,0,0,1.428.233.91.91,0,0,0,.3-1.33l-1.9-2.618a1.107,1.107,0,0,0-1.752,0l-1.9,2.618a.91.91,0,0,0,.3,1.33,1.116,1.116,0,0,0,.58.16,1.085,1.085,0,0,0,.848-.393v5.207H14.7V23.354a1.117,1.117,0,0,0,1.428.233.91.91,0,0,0,.3-1.33l-1.9-2.618a1.107,1.107,0,0,0-1.752,0l-1.9,2.618a.91.91,0,0,0,.3,1.33,1.116,1.116,0,0,0,.58.16,1.086,1.086,0,0,0,.848-.393v5.207H8.934Zm2.6,30.027a2.5,2.5,0,0,1-2.6-2.38V30.481H44.871v1.466a2.5,2.5,0,0,1-2.6,2.38ZM48.05,45.094H41.22V41.9H48.05Zm0,0"></path><path class="a" d="M313.958,206.617h-9.752a1.429,1.429,0,0,1,0-2.859h9.752a1.429,1.429,0,0,1,0,2.859Zm0,0" transform="translate(-273.345 -184.607)"></path><path class="a" d="M313.958,254.168h-9.752a1.429,1.429,0,0,1,0-2.859h9.752a1.429,1.429,0,1,1,0,2.859Zm0,0" transform="translate(-273.345 -227.689)"></path><path class="a" d="M247.261,419.367a1.429,1.429,0,1,1,1.409-1.2A1.442,1.442,0,0,1,247.261,419.367Zm0,0" transform="translate(-220.377 -379.973)"></path></g></svg> 