<?xml version="1.0" encoding="UTF-8"?> <svg xmlns="http://www.w3.org/2000/svg" width="15.44" height="19.25" viewBox="0 0 15.44 19.25"><defs><style>.a{fill:#a5a5a5;}</style></defs><g transform="translate(-47.2)"><g transform="translate(47.2)"><path class="a" d="M54.916,0A7.726,7.726,0,0,0,47.2,7.716a7.594,7.594,0,0,0,.137,1.449c0,.028.02.113.052.258a7.6,7.6,0,0,0,.517,1.521,21.631,21.631,0,0,0,6.671,8.184.546.546,0,0,0,.686,0,21.672,21.672,0,0,0,6.671-8.184,7.513,7.513,0,0,0,.517-1.521c.032-.145.048-.23.052-.258a7.935,7.935,0,0,0,.137-1.449A7.739,7.739,0,0,0,54.916,0Zm6.506,8.975c0,.008,0,.016,0,.024s-.016.081-.036.174v.008a6.407,6.407,0,0,1-.448,1.316s0,.012-.008.016A20.187,20.187,0,0,1,54.916,18a20.187,20.187,0,0,1-6.009-7.49s0-.012-.008-.016a6.835,6.835,0,0,1-.448-1.316V9.173c-.024-.093-.032-.153-.036-.174s0-.016,0-.028a6.626,6.626,0,1,1,13.011,0Z" transform="translate(-47.2)"></path><path class="a" d="M121.9,71.9a4.9,4.9,0,1,0,4.9,4.9A4.907,4.907,0,0,0,121.9,71.9Zm0,8.709a3.81,3.81,0,1,1,3.81-3.81A3.814,3.814,0,0,1,121.9,80.609Z" transform="translate(-114.183 -68.998)"></path></g></g></svg> 