<?xml version="1.0" encoding="UTF-8"?> <svg xmlns="http://www.w3.org/2000/svg" width="53.135" height="53.135" viewBox="0 0 53.135 53.135"><defs><style>.a{fill:#fda92d;}</style></defs><g transform="translate(0)"><path class="a" d="M52.1,36.115H37.983V23.039A1.038,1.038,0,0,0,36.945,22H35.137a2.192,2.192,0,0,0-.108-.732l-1.991-6.082,5.2-3.758a2.138,2.138,0,0,0-1.253-3.87H30.566L28.6,1.48a2.138,2.138,0,0,0-4.068,0L22.568,7.559H16.153a2.138,2.138,0,0,0-1.253,3.87l5.2,3.758-1.991,6.082A2.194,2.194,0,0,0,18,22H16.189a1.038,1.038,0,0,0-1.038,1.038V36.115H1.038A1.038,1.038,0,0,0,0,37.153V52.1a1.038,1.038,0,0,0,1.038,1.038H52.1A1.038,1.038,0,0,0,53.134,52.1V48.776a1.038,1.038,0,0,0-2.076,0v2.283H37.983V38.191H51.059v2.283a1.038,1.038,0,1,0,2.076,0V37.153A1.038,1.038,0,0,0,52.1,36.115Zm-32.018-14.2,2.226-6.8a1.037,1.037,0,0,0-.378-1.164l-5.81-4.2c-.026-.018-.037-.027-.023-.07s.028-.043.059-.043h7.17a1.038,1.038,0,0,0,.987-.719l2.2-6.8c.01-.03.014-.043.059-.043s.049.013.059.043l2.2,6.8a1.038,1.038,0,0,0,.988.718h7.17c.031,0,.045,0,.059.043s0,.051-.023.07l-5.81,4.2a1.038,1.038,0,0,0-.378,1.164l2.227,6.8c.009.03.014.043-.023.07s-.048.018-.073,0l-5.781-4.22a1.038,1.038,0,0,0-1.224,0l-5.781,4.22c-.026.018-.037.027-.073,0s-.032-.04-.022-.07Zm6.489-2.027L29.463,22H23.672ZM2.075,38.191H15.152V51.059H2.075Zm15.152-1.038V24.077h2.839l.072,0,.071,0H32.926c.047,0,.094,0,.142,0h2.84V51.059H17.227Zm0,0" transform="translate(0 0)"></path><path class="a" d="M439.038,3.571a1.038,1.038,0,0,0,1.038-1.038v-1.5a1.038,1.038,0,1,0-2.076,0v1.5A1.038,1.038,0,0,0,439.038,3.571Zm0,0" transform="translate(-392.545 0)"></path><path class="a" d="M439.038,69.157a1.038,1.038,0,0,0,1.038-1.038v-1.5a1.038,1.038,0,1,0-2.076,0v1.5A1.038,1.038,0,0,0,439.038,69.157Zm0,0" transform="translate(-392.545 -58.779)"></path><path class="a" d="M464.624,42.076h1.5a1.038,1.038,0,0,0,0-2.076h-1.5a1.038,1.038,0,0,0,0,2.076Zm0,0" transform="translate(-415.476 -35.849)"></path><path class="a" d="M399.038,42.076h1.5a1.038,1.038,0,1,0,0-2.076h-1.5a1.038,1.038,0,0,0,0,2.076Zm0,0" transform="translate(-356.696 -35.849)"></path><path class="a" d="M55.038,128.919a1.038,1.038,0,0,0,1.038-1.038v-1.5a1.038,1.038,0,0,0-2.076,0v1.5A1.038,1.038,0,0,0,55.038,128.919Zm0,0" transform="translate(-48.396 -112.339)"></path><path class="a" d="M55.038,194.5a1.038,1.038,0,0,0,1.038-1.038v-1.5a1.038,1.038,0,0,0-2.076,0v1.5A1.038,1.038,0,0,0,55.038,194.5Zm0,0" transform="translate(-48.396 -171.116)"></path><path class="a" d="M80.624,167.424h1.5a1.038,1.038,0,0,0,0-2.076h-1.5a1.038,1.038,0,0,0,0,2.076Zm0,0" transform="translate(-71.327 -148.188)"></path><path class="a" d="M15.038,167.424h1.5a1.038,1.038,0,0,0,0-2.076h-1.5a1.038,1.038,0,0,0,0,2.076Zm0,0" transform="translate(-12.547 -148.188)"></path><path class="a" d="M493.038,420a1.038,1.038,0,1,0,.734.3A1.046,1.046,0,0,0,493.038,420Zm0,0" transform="translate(-440.941 -376.413)"></path></g></svg> 