<?xml version="1.0" encoding="UTF-8"?> <svg xmlns="http://www.w3.org/2000/svg" width="41.026" height="53.868" viewBox="0 0 41.026 53.868"><defs><style>.a{fill:#fda92d;}</style></defs><g transform="translate(4.75 0)"><path class="a" d="M35.144,42.919h-.028a1.405,1.405,0,0,1-1.4-1.4v-.051a1.405,1.405,0,0,1,1.4-1.4h.105A1.055,1.055,0,0,0,36.255,38.8a12.472,12.472,0,0,0-3.729-6.65,1.055,1.055,0,0,0-1.567.136,1.022,1.022,0,0,0-.059.086,1.407,1.407,0,0,1-1.344.669A1.388,1.388,0,0,1,29,32.856l-.045-.026a1.4,1.4,0,0,1-.513-1.917l.009-.015a1.055,1.055,0,0,0-.595-1.516,12.482,12.482,0,0,0-2.11-.49V8.018a1.054,1.054,0,0,0-1.054-1.053H20.066V4.935a1.054,1.054,0,0,0-1.053-1.054H15.319a4.934,4.934,0,0,0-9.641,0H1.984A1.054,1.054,0,0,0,.93,4.935v2.03H-3.7A1.054,1.054,0,0,0-4.75,8.018V45.792A1.054,1.054,0,0,0-3.7,46.845H12.682a12.537,12.537,0,0,0,2.526,3.471,1.055,1.055,0,0,0,1.623-.186,1.4,1.4,0,0,1,1.879-.455l.045.026a1.4,1.4,0,0,1,.513,1.918l-.015.027-.008.015a1.055,1.055,0,0,0,.53,1.492l.044.016a12.606,12.606,0,0,0,7.609.211l.012,0a1.056,1.056,0,0,0,.619-1.524l-.008-.014a1.4,1.4,0,0,1,.514-1.913h0l.044-.026a1.4,1.4,0,0,1,1.917.514l.059.1c.012.02.024.039.036.058a1.056,1.056,0,0,0,1.571.211,12.475,12.475,0,0,0,3.975-6.568c0-.012.006-.024.008-.036a1.055,1.055,0,0,0-1.035-1.263ZM10.5,2.107a2.832,2.832,0,0,1,2.623,1.774H7.875A2.832,2.832,0,0,1,10.5,2.107ZM3.038,5.989H17.96V7.935c0,.027,0,.055,0,.083s0,.057,0,.084V9.674H15.433v-1.4a1.054,1.054,0,1,0-2.107,0v1.4H7.671v-1.4a1.054,1.054,0,0,0-2.108,0v1.4H3.038Zm-5.68,38.749V9.072H.93v1.656a1.054,1.054,0,0,0,1.054,1.054H19.013a1.054,1.054,0,0,0,1.053-1.054V9.072h3.573v19.7a12.573,12.573,0,0,0-3.3.522l-.03.01a1.055,1.055,0,0,0-.612,1.47,1.4,1.4,0,0,1-.556,1.834l-.046.027a1.4,1.4,0,0,1-1.888-.469,1.055,1.055,0,0,0-1.6-.229,12.5,12.5,0,0,0-3.851,6.38c0,.014-.007.03-.01.044a1.055,1.055,0,0,0,.93,1.257l.024,0A1.407,1.407,0,0,1,14,41.014v.054a1.393,1.393,0,0,1-1.36,1.4,1.056,1.056,0,0,0-1.006,1.256q.1.514.243,1.014H-2.642Zm34.234,3.705a3.517,3.517,0,0,0-4.035-.367l-.044.025a3.516,3.516,0,0,0-1.724,3.5,10.531,10.531,0,0,1-4.266-.125,3.518,3.518,0,0,0-1.713-3.6l-.045-.026a3.506,3.506,0,0,0-3.8.187,10.35,10.35,0,0,1-2.015-3.726,3.49,3.49,0,0,0,2.161-3.244v-.053A3.528,3.528,0,0,0,14.1,37.845a10.364,10.364,0,0,1,2.186-3.622,3.5,3.5,0,0,0,3.867.233l.046-.027a3.517,3.517,0,0,0,1.739-3.364,10.554,10.554,0,0,1,4.244.043A3.517,3.517,0,0,0,27.9,34.655l.045.026a3.477,3.477,0,0,0,1.392.452,3.518,3.518,0,0,0,2.478-.694,10.343,10.343,0,0,1,2.1,3.726,3.517,3.517,0,0,0-2.313,3.3v.051a3.516,3.516,0,0,0,2.21,3.261,10.355,10.355,0,0,1-2.223,3.667Zm0,0"></path><path class="a" d="M273.844,434.945a1.054,1.054,0,0,0-.041,1.489,4.016,4.016,0,1,1-5.9.078,1.054,1.054,0,1,0-1.567-1.409,6.128,6.128,0,1,0,9-.117,1.054,1.054,0,0,0-1.489-.041Zm0,0" transform="translate(-246.83 -398.071)"></path><path class="a" d="M324.206,419.769l.029.022a1.054,1.054,0,1,0,1.277-1.676l-.029-.022a1.054,1.054,0,1,0-1.278,1.675Zm0,0" transform="translate(-300.888 -382.705)"></path><path class="a" d="M119.327,180.514h5.2a1.054,1.054,0,1,0,0-2.108h-5.2a1.054,1.054,0,1,0,0,2.108Zm0,0" transform="translate(-112.668 -163.39)"></path><path class="a" d="M60.116,243.835H77.454a1.054,1.054,0,1,0,0-2.108H60.116a1.054,1.054,0,1,0,0,2.108Zm0,0" transform="translate(-58.441 -221.381)"></path><path class="a" d="M70.517,304.272a1.054,1.054,0,0,0-1.054-1.054H60.117a1.054,1.054,0,1,0,0,2.108h9.346A1.054,1.054,0,0,0,70.517,304.272Zm0,0" transform="translate(-58.442 -277.697)"></path><path class="a" d="M60.116,180.514h1.812a1.054,1.054,0,0,0,0-2.108H60.116a1.054,1.054,0,0,0,0,2.108Zm0,0" transform="translate(-58.441 -163.39)"></path><path class="a" d="M220.711,302.016l-.029-.022a1.054,1.054,0,0,0-1.274,1.679l.029.022a1.054,1.054,0,0,0,1.274-1.679Zm0,0" transform="translate(-204.909 -276.379)"></path><path class="a" d="M60.116,418.141a1.054,1.054,0,0,0-1.054,1.054v4.879a1.054,1.054,0,1,0,2.108,0v-4.879A1.054,1.054,0,0,0,60.116,418.141Zm0,0" transform="translate(-58.441 -382.946)"></path></g></svg> 