<?xml version="1.0" encoding="UTF-8"?> <svg xmlns="http://www.w3.org/2000/svg" width="53.175" height="53.175" viewBox="0 0 53.175 53.175"><defs><style>.a{fill:#fda92d;}</style></defs><g transform="translate(6.434 35.942)"><path class="a" d="M63.723,346.372a1.039,1.039,0,1,0,.3.735A1.045,1.045,0,0,0,63.723,346.372Z" transform="translate(-61.95 -346.069)"></path></g><g transform="translate(6.768)"><path class="a" d="M98.97,24.771a13.843,13.843,0,0,0-7.742-2.352h-.607a8.769,8.769,0,0,0,3.121-6.709V9.047a5.9,5.9,0,0,0,.7-2.8V1.039A1.039,1.039,0,0,0,93.406,0H81.321a6.084,6.084,0,0,0-6.078,6.078V7.79a4.37,4.37,0,0,0,.926,2.694V15.71a8.769,8.769,0,0,0,3.121,6.709h-.554A13.913,13.913,0,0,0,65.189,33.166a1.038,1.038,0,1,0,2.023.47,11.763,11.763,0,0,1,10.276-9.074l6.759,6.759a1.039,1.039,0,0,0,1.469,0l6.76-6.76A11.752,11.752,0,0,1,97.813,26.5a1.039,1.039,0,0,0,1.158-1.725ZM77.32,7.79V6.078a4.005,4.005,0,0,1,4-4H92.368V6.25a3.86,3.86,0,0,1-3.856,3.856H79.636A2.319,2.319,0,0,1,77.32,7.79Zm7.662,21.329L80.359,24.5h9.247Zm.014-6.7h-.08a6.717,6.717,0,0,1-6.669-6.709V11.957a4.372,4.372,0,0,0,1.39.227h8.875a5.9,5.9,0,0,0,3.154-.911V15.71A6.717,6.717,0,0,1,85,22.418Z" transform="translate(-65.162)"></path></g><g transform="translate(0 38.45)"><path class="a" d="M28.665,370.219a3.537,3.537,0,0,0-3.375,2.493H14.563a3.531,3.531,0,1,0-6.5,2.69l-2.885,2.885a3.534,3.534,0,1,0,1.469,1.469l2.885-2.885a3.529,3.529,0,0,0,5.026-2.082H25.29a3.531,3.531,0,1,0,3.375-4.57ZM3.531,382.86a1.454,1.454,0,1,1,1.454-1.454A1.456,1.456,0,0,1,3.531,382.86Zm7.656-7.656a1.454,1.454,0,1,1,1.454-1.454A1.456,1.456,0,0,1,11.187,375.2Zm17.477,0a1.454,1.454,0,1,1,1.454-1.454A1.456,1.456,0,0,1,28.665,375.2Z" transform="translate(0 -370.219)"></path></g><g transform="translate(32.301 36.683)"><path class="a" d="M312.784,353.5a1.04,1.04,0,1,0,.3.734A1.047,1.047,0,0,0,312.784,353.5Z" transform="translate(-311.01 -353.2)"></path></g><g transform="translate(35.141 17.869)"><path class="a" d="M355.355,172.05h-3.728a1.039,1.039,0,0,0,0,2.077h1.238l-14.2,14.2a1.039,1.039,0,1,0,1.469,1.469l14.184-14.184v1.2a1.039,1.039,0,0,0,2.077,0v-3.727A1.039,1.039,0,0,0,355.355,172.05Z" transform="translate(-338.359 -172.05)"></path></g><g transform="translate(22.677 14.454)"><path class="a" d="M220.123,139.474a1.039,1.039,0,1,0,.3.735A1.047,1.047,0,0,0,220.123,139.474Z" transform="translate(-218.35 -139.17)"></path></g><g transform="translate(28.392 14.454)"><path class="a" d="M275.143,139.474a1.039,1.039,0,1,0,.3.735A1.047,1.047,0,0,0,275.143,139.474Z" transform="translate(-273.37 -139.17)"></path></g><g transform="translate(34.896 34.896)"><path class="a" d="M345.14,336a9.139,9.139,0,1,0,9.139,9.14A9.15,9.15,0,0,0,345.14,336Zm0,16.2a7.062,7.062,0,1,1,7.062-7.062A7.07,7.07,0,0,1,345.14,352.2Z" transform="translate(-336 -336)"></path></g><g transform="translate(41.073 38.778)"><path class="a" d="M398.44,377.659a.725.725,0,1,1,.885-.707,1.039,1.039,0,0,0,2.077,0,2.8,2.8,0,0,0-1.927-2.609,1.037,1.037,0,0,0-2.07,0,2.8,2.8,0,0,0-1.927,2.609,2.881,2.881,0,0,0,2.962,2.785.725.725,0,1,1-.885.707,1.039,1.039,0,1,0-2.077,0,2.8,2.8,0,0,0,1.934,2.611,1.037,1.037,0,0,0,2.056,0,2.8,2.8,0,0,0,1.934-2.611A2.881,2.881,0,0,0,398.44,377.659Z" transform="translate(-395.477 -373.374)"></path></g></svg> 