<?xml version="1.0" encoding="UTF-8"?> <svg xmlns="http://www.w3.org/2000/svg" width="48.934" height="48.647" viewBox="0 0 48.934 48.647"><defs><style>.a{fill:#fda92d;}</style></defs><g transform="translate(0 -1.492)"><g transform="translate(0 48.217)"><g transform="translate(0)"><circle class="a" cx="0.961" cy="0.961" r="0.961"></circle></g></g><g transform="translate(31.114 11.434)"><path class="a" d="M332.521,106.712a4.082,4.082,0,1,0,0,5.776A4.057,4.057,0,0,0,332.521,106.712Zm-1.357,4.419a2.165,2.165,0,1,1,0-3.062A2.168,2.168,0,0,1,331.164,111.131Z" transform="translate(-325.551 -105.516)"></path></g><g transform="translate(3.092 37.726)"><path class="a" d="M41.244,383.563a.959.959,0,0,0-1.287.431l-1.143,2.3a3.167,3.167,0,0,1-2.609,1.741l-1.329.091a.569.569,0,0,1-.606-.606l.091-1.329a3.167,3.167,0,0,1,1.741-2.609l2.3-1.143a.959.959,0,0,0-.855-1.718l-2.3,1.143a5.093,5.093,0,0,0-2.8,4.2l-.091,1.329a2.487,2.487,0,0,0,2.482,2.658c.056,0,.113,0,.17-.006l1.329-.091a5.092,5.092,0,0,0,4.2-2.8l1.143-2.3A.959.959,0,0,0,41.244,383.563Z" transform="translate(-32.35 -380.616)"></path></g><g transform="translate(0.002 1.492)"><path class="a" d="M48.287,2.132a2.222,2.222,0,0,0-1.7-.635l-.893.057A28.95,28.95,0,0,0,25.124,12.163l-2.1,2.589-5.5-.162H17.49A16.234,16.234,0,0,0,5.936,19.376L.3,25.012a.959.959,0,0,0,.629,1.637l11.932.613-.486.6a.959.959,0,0,0-.1,1.063q.28.516.587,1.015L10.033,33.3A.96.96,0,0,0,9.9,34.327a12.494,12.494,0,0,0,6,6,.96.96,0,0,0,1.015-.122c.61-.494,1.312-1.081,1.992-1.648.484-.4.98-.818,1.443-1.2q.415.25.841.482a.959.959,0,0,0,1.047-.085l.654-.507.616,11.982a.959.959,0,0,0,1.637.629l5.637-5.637a16.233,16.233,0,0,0,4.786-11.554V27.41l2.224-1.726A28.835,28.835,0,0,0,48.923,4.29l.023-.467A2.223,2.223,0,0,0,48.287,2.132ZM3.182,24.843l4.111-4.111a14.328,14.328,0,0,1,10.183-4.224l4.022.118-7.14,8.791ZM17.675,37.082c-.5.418-1.014.846-1.491,1.238a10.541,10.541,0,0,1-4.275-4.271l2.072-2.459a22.244,22.244,0,0,0,2.053,2.382l0,0h0a22.246,22.246,0,0,0,2.642,2.271Zm15.97-4.416a14.327,14.327,0,0,1-4.224,10.2l-4.111,4.111-.574-11.162L33.646,28.9v3.767ZM47.007,4.2a26.918,26.918,0,0,1-10.4,19.973L21.563,35.846a20.318,20.318,0,0,1-3.476-2.566l5.074-5.074A.96.96,0,0,0,21.8,26.85l-5.069,5.069a20.315,20.315,0,0,1-2.46-3.355L26.614,13.373a27.025,27.025,0,0,1,19.2-9.9l.893-.057a.3.3,0,0,1,.321.317Z" transform="translate(-0.018 -1.492)"></path></g></g></svg> 