<?xml version="1.0" encoding="UTF-8"?> <svg xmlns="http://www.w3.org/2000/svg" width="44.021" height="53.158" viewBox="0 0 44.021 53.158"><defs><style>.a{fill:#fda92d;}</style></defs><g transform="translate(-44 0)"><g transform="translate(56.563 17.131)"><path class="a" d="M174.452,165a9.443,9.443,0,0,0-8.013,14.446,1.032,1.032,0,0,0,.1.154,9.446,9.446,0,1,0,7.915-14.6Zm-6.822,12.234a7.368,7.368,0,0,1,12.847-7.026l-5.7,5.7-2.176-2.176a1.038,1.038,0,0,0-1.468,0Zm6.822,4.584a7.36,7.36,0,0,1-5.73-2.741l3.141-3.141,2.176,2.176a1.038,1.038,0,0,0,1.468,0l5.95-5.95a7.368,7.368,0,0,1-7.007,9.656Z" transform="translate(-165.004 -165.004)"></path></g><g transform="translate(44 0)"><g transform="translate(0 0)"><path class="a" d="M81.984,25.862A30.79,30.79,0,0,0,66.527.137a1.038,1.038,0,0,0-1.033,0A30.79,30.79,0,0,0,50.038,25.862,9.976,9.976,0,0,0,44,35.025V42.36A1.038,1.038,0,0,0,45.038,43.4H60.294a13.045,13.045,0,0,0,3.829,8.32l1.158,1.141a1.039,1.039,0,0,0,1.457,0L67.9,51.718A13.045,13.045,0,0,0,71.727,43.4H74.94v5.359a1.038,1.038,0,1,0,2.076,0V43.4h9.967a1.038,1.038,0,0,0,1.038-1.038V35.025A9.976,9.976,0,0,0,81.984,25.862ZM66.011,2.242a28.656,28.656,0,0,1,8.262,7.517H57.749A28.656,28.656,0,0,1,66.011,2.242ZM46.076,41.322v-6.3a7.9,7.9,0,0,1,3.945-6.836V40.284a3.1,3.1,0,0,0,.179,1.038ZM66.44,50.239l-.43.423-.43-.423a10.954,10.954,0,0,1-3.2-6.84h7.267A10.955,10.955,0,0,1,66.44,50.239Zm13.483-9.955a1.039,1.039,0,0,1-1.038,1.038H53.137A1.039,1.039,0,0,1,52.1,40.284V26.847a28.639,28.639,0,0,1,2.121-10.807h4.7a1.038,1.038,0,1,0,0-2.076H55.162q.547-1.089,1.185-2.128H75.674a28.718,28.718,0,0,1,4.25,15.012Zm6.022,1.038H81.821A3.1,3.1,0,0,0,82,40.284V28.189a7.9,7.9,0,0,1,3.945,6.836Z" transform="translate(-44 0)"></path></g></g><g transform="translate(61.65 13.964)"><g transform="translate(0)"><path class="a" d="M215.772,134.8a1.037,1.037,0,1,0,.3.734A1.046,1.046,0,0,0,215.772,134.8Z" transform="translate(-214 -134.5)"></path></g></g><g transform="translate(55.005 46.176)"><path class="a" d="M151.038,444.751A1.038,1.038,0,0,0,150,445.789v3.2a1.038,1.038,0,1,0,2.076,0v-3.2A1.038,1.038,0,0,0,151.038,444.751Z" transform="translate(-150 -444.751)"></path></g><g transform="translate(74.94 51.081)"><path class="a" d="M343.772,492.3a1.038,1.038,0,1,0,.3.734A1.046,1.046,0,0,0,343.772,492.3Z" transform="translate(-342 -492)"></path></g></g></svg> 