<?xml version="1.0" encoding="UTF-8"?> <svg xmlns="http://www.w3.org/2000/svg" width="53.229" height="48.352" viewBox="0 0 53.229 48.352"><defs><style>.a{fill:#fda92d;}</style></defs><g transform="translate(0 -23.462)"><g transform="translate(48.612 55.201)"><path class="a" d="M471.9,331.57l-2.538-2.517a1.04,1.04,0,0,0-1.465,1.477l2.538,2.517a1.04,1.04,0,0,0,1.465-1.477Z" transform="translate(-467.587 -328.751)"></path></g><g transform="translate(46.022 52.623)"><path class="a" d="M444.451,304.256a1.04,1.04,0,0,0-1.471,0l0,0a1.04,1.04,0,1,0,1.472,0Z" transform="translate(-442.675 -303.951)"></path></g><g transform="translate(0 23.462)"><path class="a" d="M38.933,57.722,49.021,47.635a3.916,3.916,0,0,0-1.89-6.587,3.92,3.92,0,0,0-2.889-5.513,3.912,3.912,0,0,0-3.052-5.086A3.92,3.92,0,0,0,35.6,25.775l-.1-.108a6.939,6.939,0,0,0-5.063-2.2H22.269a1.04,1.04,0,0,0-1.04,1.04v1.364a4.724,4.724,0,0,0,.269,1.577,3.919,3.919,0,0,0-5.223,4.85,3.918,3.918,0,0,0-3.056,5.087,3.918,3.918,0,0,0-2.886,5.51,3.919,3.919,0,0,0-1.89,6.589l2.074,2.074L.3,61.765a1.04,1.04,0,1,0,1.47,1.471L12.086,52.925a3.916,3.916,0,0,0,5.849-3.565c.053,0,.105,0,.158,0a3.915,3.915,0,0,0,3.918-3.917c0-.053,0-.106,0-.158.052,0,.1,0,.156,0a3.915,3.915,0,0,0,3.918-3.917c0-.053,0-.106,0-.158.052,0,.1,0,.156,0a3.916,3.916,0,0,0,3.031-6.4l6.9-6.9a1.839,1.839,0,1,1,2.6,2.6l-1.018,1.018-3.693,3.693a1.04,1.04,0,1,0,1.47,1.471l3.693-3.693a1.839,1.839,0,1,1,2.6,2.6L40.8,36.625,38.129,39.3a1.04,1.04,0,1,0,1.47,1.471L42.275,38.1a1.839,1.839,0,1,1,2.6,2.6l-1.4,1.4L42.2,43.371a1.04,1.04,0,1,0,1.47,1.471l1.279-1.279a1.839,1.839,0,0,1,2.6,2.6L37.462,56.252a14.087,14.087,0,0,1-9.479,4.129,1.04,1.04,0,0,0-.7.305L17.965,70.04a1.04,1.04,0,1,0,1.473,1.468l6.854-6.879a9.665,9.665,0,0,0,5.87,1.51L37.527,71.5A1.04,1.04,0,0,0,39,70.032l-5.7-5.7a1.04,1.04,0,0,0-.82-.3l-.33.027A7.591,7.591,0,0,1,27.8,63.11l.668-.671A16.157,16.157,0,0,0,38.933,57.722Zm-23.61-6.9a1.839,1.839,0,0,1-2.6,0l-2.81-2.81a1.839,1.839,0,1,1,2.6-2.6l2.81,2.81A1.841,1.841,0,0,1,15.323,50.818Zm4.071-4.071a1.841,1.841,0,0,1-2.6,0l-2.81-2.81-1.4-1.4a1.839,1.839,0,1,1,2.6-2.6l4.207,4.207h0a1.839,1.839,0,0,1,0,2.6Zm4.071-4.071a1.841,1.841,0,0,1-2.6,0L15.64,37.451a1.839,1.839,0,0,1,2.6-2.6l2.381,2.381,2.844,2.844h0a1.839,1.839,0,0,1,0,2.6ZM27.536,38.6a1.841,1.841,0,0,1-2.6,0L19.711,33.38l0,0-1.016-1.016a1.839,1.839,0,0,1,2.6-2.6L27.536,36a1.839,1.839,0,0,1,0,2.6Zm.273-5.268-2.856-2.856a4.758,4.758,0,0,0,1,.106h.023l2.854-.013a1.04,1.04,0,0,0,0-2.08h0l-2.854.013h-.013a2.641,2.641,0,0,1-2.641-2.641v-.324h7.125a4.853,4.853,0,0,1,3.541,1.542l.042.045Z" transform="translate(0 -23.462)"></path></g></g></svg> 