<?xml version="1.0" encoding="UTF-8"?> <svg xmlns="http://www.w3.org/2000/svg" width="55.938" height="48.495" viewBox="0 0 55.938 48.495"><defs><style>.a{fill:#fda92d;}</style></defs><path class="a" d="M45.9,7.328a.82.82,0,0,0-.433,1.581C51,10.423,54.3,12.573,54.3,14.659v.012c0,.835-.555,2.136-3.2,3.591a31.623,31.623,0,0,1-8.585,2.858q-.354.072-.716.142a.82.82,0,0,0-.665.8v7.445c-1.374-.239-2.809-.438-4.284-.6l.335-4.79a.819.819,0,0,0-1.635-.114L35.1,30.391a1.722,1.722,0,0,1-1.711,1.6h-.436a.819.819,0,0,0-.816.745L30.809,47.356H25.128L23.8,32.732a.819.819,0,0,0-.816-.745h-.436a1.721,1.721,0,0,1-1.711-1.595l-.868-12.414a4.062,4.062,0,0,1,4.051-4.345h7.9a4.062,4.062,0,0,1,4.052,4.345l-.192,2.75a.819.819,0,1,0,1.635.114l.192-2.75a5.7,5.7,0,0,0-5.319-6.084,6.552,6.552,0,0,0,2.248-4.9,66.535,66.535,0,0,1,7.8,1.063.819.819,0,0,0,.324-1.606,68.542,68.542,0,0,0-8.327-1.116,6.566,6.566,0,0,0-12.725,0A58.762,58.762,0,0,0,8.522,7.774C2.946,9.547,0,11.928,0,14.659V37.906c0,2.314,2.2,4.011,4.049,5.027a34.442,34.442,0,0,0,9.782,3.173.82.82,0,0,0,.973-.8V39.535a.819.819,0,0,0-1.639,0V44.3a31.154,31.154,0,0,1-8.328-2.8c-2.645-1.454-3.2-2.756-3.2-3.591V17.982l0,0c.083.08.169.157.256.234l.035.031q.125.109.255.214l.048.038q.129.1.261.2l.042.031c.092.068.184.136.278.2l0,0q.141.1.283.19l.039.026c.091.059.181.116.272.172l.049.03c.09.055.181.109.271.162l.039.022c.094.054.187.107.28.158a25.473,25.473,0,0,0,4.584,1.887q.888.279,1.85.532.641.168,1.312.324t1.371.3V36.258a.819.819,0,0,0,1.639,0V31.176c1.407-.252,2.88-.462,4.4-.628a3.368,3.368,0,0,0,3.028,3.063L23.563,48.25a.819.819,0,0,0,.816.745h7.177a.819.819,0,0,0,.816-.745L33.7,33.611a3.368,3.368,0,0,0,3.028-3.063c1.52.166,2.993.376,4.4.628V45.3a.817.817,0,0,0,.973.8,34.432,34.432,0,0,0,9.782-3.173c1.847-1.016,4.049-2.713,4.049-5.027V14.659c0-2.954-3.564-5.558-10.035-7.332ZM23.094,6.342a4.928,4.928,0,0,1,9.749,0,4.928,4.928,0,1,1-9.749,0ZM14.139,21.261a32.829,32.829,0,0,1-9.3-3c-2.646-1.454-3.2-2.755-3.2-3.59v-.012c0-1.864,2.759-3.854,7.381-5.323A56.564,56.564,0,0,1,21.4,7.1a6.549,6.549,0,0,0,2.248,4.905,5.7,5.7,0,0,0-5.319,6.085l.757,10.82c-1.475.16-2.91.359-4.284.6V22.066a.819.819,0,0,0-.665-.8ZM54.3,37.906c0,.835-.555,2.136-3.2,3.591a31.156,31.156,0,0,1-8.327,2.8V22.74A33.35,33.35,0,0,0,51.888,19.7q.138-.076.278-.157l.041-.024c.089-.052.179-.105.269-.16l.051-.032q.136-.083.271-.172l.041-.026q.141-.092.281-.189l0,0c.093-.065.185-.132.277-.2l.042-.032q.131-.1.26-.2l.048-.039c.086-.07.171-.141.254-.214l.036-.032c.086-.076.171-.153.253-.232l0,0V37.906Zm0,0" transform="translate(0.001 -0.5)"></path></svg> 